<svg width="106" height="24" viewBox="0 0 106 24" fill="none" xmlns="http://www.w3.org/2000/svg">
<path fill-rule="evenodd" clip-rule="evenodd" d="M18.4373 7.58594H9.38592C7.19686 7.58594 5.82397 9.13611 5.82397 11.3306V17.2513C5.82397 19.4458 7.18929 20.9959 9.38592 20.9959H18.4362C20.6339 20.9959 22.0003 19.4458 22.0003 17.2513V11.3306C22.0003 9.13611 20.6339 7.58594 18.4373 7.58594Z" stroke="#087F5B" stroke-width="1.5" stroke-linecap="round" stroke-linejoin="round"/>
<path d="M9.37183 12.0488H18.447" stroke="#087F5B" stroke-width="1.5" stroke-linecap="round" stroke-linejoin="round"/>
<path d="M18.0852 7.58365L16.4994 4.94056C15.3632 3.06933 13.3979 2.43801 11.5116 3.57524L3.76284 8.23874C1.88403 9.36733 1.50568 11.4029 2.63426 13.2893L5.69569 18.3549C5.83839 18.6003 5.99622 18.8208 6.17675 19.0186V19.0262" stroke="#087F5B" stroke-width="1.5" stroke-linecap="round" stroke-linejoin="round"/>
<path d="M35.6461 8.95512H40.8386V18.5H39.1777V10.5587H35.6461V18.5H33.9853V10.5587H32.4582V8.95512H33.9853V8.66878C33.9853 6.14893 35.3789 4.88901 38.166 4.88901C38.726 4.88901 39.3814 4.97173 40.1322 5.13717V6.64526C39.2923 6.54345 38.6369 6.49255 38.166 6.49255C37.2879 6.49255 36.6452 6.65799 36.2379 6.98888C35.8434 7.31977 35.6461 7.87974 35.6461 8.66878V8.95512ZM48.1361 8.70696C49.256 8.70696 50.1532 9.0633 50.8277 9.77598C51.5022 10.4759 51.8395 11.4304 51.8395 12.6394V18.5H50.1787V12.7349C50.1787 11.9713 49.9687 11.3732 49.5487 10.9405C49.1287 10.5078 48.5497 10.2914 47.8115 10.2914C46.9589 10.2914 46.2844 10.5587 45.788 11.0932C45.2917 11.615 45.0435 12.3976 45.0435 13.4412V18.5H43.3827V8.95512H45.0435V10.3296C45.7053 9.24783 46.7361 8.70696 48.1361 8.70696ZM58.6441 18.7482C57.206 18.7482 56.0097 18.2709 55.0552 17.3164C54.1007 16.3492 53.6235 15.1529 53.6235 13.7276C53.6235 12.3022 54.1007 11.1123 55.0552 10.1578C56.0097 9.19056 57.206 8.70696 58.6441 8.70696C59.5858 8.70696 60.4321 8.93603 61.183 9.39419C61.9339 9.83962 62.4938 10.4441 62.8629 11.2077L61.4694 12.0095C61.2276 11.5004 60.8521 11.0932 60.3431 10.7877C59.8467 10.4823 59.2804 10.3296 58.6441 10.3296C57.6896 10.3296 56.8878 10.6541 56.2388 11.3032C55.6024 11.9649 55.2843 12.7731 55.2843 13.7276C55.2843 14.6693 55.6024 15.4711 56.2388 16.1329C56.8878 16.7819 57.6896 17.1064 58.6441 17.1064C59.2804 17.1064 59.8531 16.9601 60.3621 16.6674C60.8712 16.3619 61.2594 15.9547 61.5266 15.4456L62.9393 16.2665C62.5193 17.0301 61.9275 17.6346 61.1639 18.08C60.4003 18.5255 59.5604 18.7482 58.6441 18.7482ZM69.3324 8.70696C70.4523 8.70696 71.3495 9.0633 72.024 9.77598C72.6986 10.4759 73.0358 11.4304 73.0358 12.6394V18.5H71.375V12.7349C71.375 11.9713 71.165 11.3732 70.745 10.9405C70.3251 10.5078 69.746 10.2914 69.0079 10.2914C68.1552 10.2914 67.4807 10.5587 66.9844 11.0932C66.488 11.615 66.2399 12.3976 66.2399 13.4412V18.5H64.579V5.13717H66.2399V10.3296C66.9016 9.24783 67.9325 8.70696 69.3324 8.70696ZM84.5174 14.4912H76.5188C76.6842 15.3311 77.0724 15.9929 77.6833 16.4765C78.2941 16.9474 79.0577 17.1828 79.974 17.1828C81.234 17.1828 82.1503 16.7183 82.723 15.7893L84.1356 16.591C83.1938 18.0291 81.7939 18.7482 79.9359 18.7482C78.4341 18.7482 77.1997 18.2773 76.2324 17.3355C75.2907 16.3683 74.8198 15.1657 74.8198 13.7276C74.8198 12.2767 75.2843 11.0804 76.2134 10.1387C77.1424 9.1842 78.345 8.70696 79.8213 8.70696C81.2212 8.70696 82.3603 9.20329 83.2384 10.196C84.1292 11.1632 84.5747 12.3467 84.5747 13.7467C84.5747 13.9885 84.5556 14.2366 84.5174 14.4912ZM79.8213 10.2723C78.9432 10.2723 78.2051 10.5205 77.6069 11.0168C77.0215 11.5132 76.6588 12.1877 76.5188 13.0403H82.8948C82.7548 12.1622 82.4048 11.4813 81.8448 10.9977C81.2849 10.5141 80.6104 10.2723 79.8213 10.2723ZM90.9512 18.7482C89.5131 18.7482 88.3169 18.2709 87.3624 17.3164C86.4079 16.3492 85.9306 15.1529 85.9306 13.7276C85.9306 12.3022 86.4079 11.1123 87.3624 10.1578C88.3169 9.19056 89.5131 8.70696 90.9512 8.70696C91.893 8.70696 92.7393 8.93603 93.4902 9.39419C94.241 9.83962 94.801 10.4441 95.1701 11.2077L93.7765 12.0095C93.5347 11.5004 93.1593 11.0932 92.6502 10.7877C92.1539 10.4823 91.5876 10.3296 90.9512 10.3296C89.9968 10.3296 89.195 10.6541 88.5459 11.3032C87.9096 11.9649 87.5914 12.7731 87.5914 13.7276C87.5914 14.6693 87.9096 15.4711 88.5459 16.1329C89.195 16.7819 89.9968 17.1064 90.9512 17.1064C91.5876 17.1064 92.1603 16.9601 92.6693 16.6674C93.1784 16.3619 93.5665 15.9547 93.8338 15.4456L95.2464 16.2665C94.8265 17.0301 94.2347 17.6346 93.4711 18.08C92.7075 18.5255 91.8675 18.7482 90.9512 18.7482ZM100.246 13.5748L104.961 18.5H102.899L98.547 13.9757V18.5H96.8862V5.13717H98.547V13.174L102.67 8.95512H104.808L100.246 13.5748Z" fill="#087F5B"/>
</svg>
